<svg aria-hidden="true" style="position:absolute;width:0;height:0" xmlns="http://www.w3.org/2000/svg" overflow="hidden"><defs><symbol id="facebook" viewBox="0 0 17 32"><path d="M14.444 2.426v4.546s-3.352-.333-4.192.951c-.459.702-.186 2.759-.227 4.235h4.447c-.376 1.726-.646 2.895-.922 4.39h-3.549v14.129H3.84V16.604H1.22V12.16h2.592c.132-3.251.182-6.471 1.798-8.11 1.814-1.844 3.545-1.622 8.833-1.622z"/></symbol><symbol id="instagram" viewBox="0 0 32 32"><path d="M27.086 30.629H5.143a3.657 3.657 0 01-3.657-3.657V5.029a3.657 3.657 0 013.657-3.657h21.943a3.657 3.657 0 013.657 3.657v21.943a3.657 3.657 0 01-3.657 3.657zM16.114 10.331a5.665 5.665 0 00-5.126 3.257l-.015.035h-.006l-.025.062a4.604 4.604 0 00-.134.328l-.013.039c-.023.061-.046.119-.065.178-.03.088-.068.218-.1.35l-.008.039c-.016.061-.034.121-.048.183-.03.138-.05.279-.07.421-.008.057-.019.113-.026.171a5.669 5.669 0 1011.27-.026l.002.026c-.007-.058-.018-.114-.026-.171a5.825 5.825 0 00-.076-.458l.007.037c-.014-.062-.032-.122-.048-.183a5.25 5.25 0 00-.12-.429l.011.041c-.019-.059-.043-.118-.065-.178a4.884 4.884 0 00-.161-.401l.014.036-.025-.064h-.006c-.92-1.958-2.875-3.289-5.14-3.29zm11.337-4.205c0-.808-.655-1.463-1.463-1.463h-2.926c-.808 0-1.463.655-1.463 1.463v2.926c0 .808.655 1.463 1.463 1.463h2.926c.808 0 1.463-.655 1.463-1.463V6.126zm0 7.497h-2.697A8.75 8.75 0 0125.075 16a8.96 8.96 0 01-8.96 8.96h-.002a8.96 8.96 0 01-8.624-11.4l-.015.063H4.777v12.251c0 .808.655 1.463 1.463 1.463h19.749c.808 0 1.463-.655 1.463-1.463V13.623z"/></symbol><symbol id="pinterest" viewBox="0 0 25 32"><path d="M11.09 19.701c-.23.919-.462 1.882-.703 2.825-.237.929-.447 1.871-.792 2.726-.573 1.414-1.3 2.781-2.254 3.885-.634.736-.5.441-.691.403-.146-.031-.158-.173-.188-.381-.154-1.123-.049-2.422.009-3.686.066-1.438.369-2.634.65-3.829.534-2.276 1.044-4.51 1.583-6.802.035-.152.132-.404.099-.491-.245-.637-.404-1.208-.473-1.876a5.983 5.983 0 01.163-2.187l-.009.042c.303-1.167 1.006-2.201 2.089-2.58.689-.238 1.451-.13 1.914.146.477.286.804.736.957 1.375.163.679.043 1.49-.088 2.087-.295 1.345-.682 2.355-1.034 3.652-.174.643-.372 1.304-.21 1.999.151.638.483 1.077.936 1.407.47.342 1.026.53 1.793.502 1.355-.047 2.296-.914 2.926-1.73 1.006-1.308 1.615-3.072 1.847-5.171.075-.678.129-1.455.077-2.223-.097-1.416-.541-2.556-1.244-3.438-.669-.841-1.618-1.512-2.772-1.887-1.144-.375-2.728-.499-4.135-.258-2.558.438-4.361 1.891-5.423 3.898a7.71 7.71 0 00-.924 3.685v.082-.004c0 1.159.287 2.058.748 2.759.147.222.362.405.505.659.204.36-.031.895-.132 1.284-.121.469-.132 1.117-.681 1.128-.227.004-.512-.161-.704-.268-1.44-.796-2.314-2.243-2.673-4.12-.104-.537-.163-1.155-.163-1.786s.059-1.249.173-1.848l-.01.061c.21-1.067.6-2.05 1.034-2.848a10.278 10.278 0 013.769-3.906l.047-.026c1.231-.728 2.621-1.239 4.311-1.485a17.223 17.223 0 011.741-.144l.03-.001a10.599 10.599 0 014.841.92l-.067-.027a9.835 9.835 0 013.281 2.36l.007.008c.925 1.009 1.598 2.185 2.024 3.651.223.764.439 1.58.439 2.524 0 .947-.2 1.78-.34 2.613-.523 3.121-2.007 5.672-4.235 7.126a7.208 7.208 0 01-1.884.88l-.052.013c-.736.213-1.576.374-2.475.311a5.044 5.044 0 01-2.213-.65l.025.013c-.596-.337-1.097-.749-1.452-1.373z"/></symbol><symbol id="twitter" viewBox="0 0 37 32"><path d="M24.684 2.135c2.712-.049 4.156.94 5.533 2.197 1.172-.101 2.693-.755 3.589-1.211l.871-.476c-.512 1.383-1.205 2.467-2.272 3.287-.237.183-.472.429-.769.547v.016c1.52-.015 2.773-.701 3.964-1.073v.017c-.625.993-1.472 2.003-2.375 2.725l-1.093.867c.02 1.611-.024 3.147-.324 4.499-1.749 7.86-6.384 13.196-13.72 15.483-2.633.821-6.889 1.157-9.907.408-1.497-.371-2.849-.791-4.117-1.345a16.154 16.154 0 01-2.054-1.063l.071.041-.615-.373c.68.02 1.477.208 2.237.085.689-.112 1.364-.083 2-.221 1.584-.348 2.991-.808 4.201-1.516.588-.345 1.48-.747 1.897-1.244-.787.013-1.5-.169-2.084-.375-2.267-.8-3.584-2.271-4.443-4.48.687.076 2.664.253 3.127-.136-.864-.048-1.695-.548-2.289-.92-1.823-1.14-3.308-3.052-3.297-5.995l.717.34c.459.193.924.296 1.469.409.231.048.693.183.957.084h-.035c-.352-.409-.927-.683-1.28-1.124C3.472 10.135 2.376 7.9 3.07 5.236c.176-.676.455-1.272.752-1.823l.035.016c.136.285.44.495.632.733.597.74 1.333 1.405 2.084 1.992 2.557 2 4.86 3.229 8.56 4.139.937.232 2.021.408 3.143.409-.315-.916-.213-2.4.033-3.287.624-2.232 1.977-3.84 3.964-4.701.441-.19.961-.355 1.5-.468l.055-.01.853-.101z"/></symbol></defs></svg>