<svg xmlns="http://www.w3.org/2000/svg" width="34" height="34"><path fill-rule="evenodd" fill="#95e1d3" d="M31.74 11.503a15.72 15.72 0 00-8.243-8.243c1-.787 2.258-1.26 3.629-1.26A5.874 5.874 0 0133 7.874a5.846 5.846 0 01-1.26 3.629zM31.5 18c0 3.852-1.512 7.343-3.963 9.94l2.029 2.028a1.483 1.483 0 01-2.097 2.098l-2.18-2.18A14.419 14.419 0 0117 32.5a14.42 14.42 0 01-8.276-2.603L6.561 32.06A1.5 1.5 0 014.44 29.94l2.011-2.012C4.008 25.332 2.5 21.845 2.5 18 2.5 9.992 8.992 3.5 17 3.5S31.5 9.992 31.5 18zM17 6.5C10.649 6.5 5.5 11.648 5.5 18c0 6.351 5.149 11.5 11.5 11.5S28.5 24.35 28.5 18c0-6.352-5.149-11.5-11.5-11.5zm6 13h-6a1.5 1.5 0 01-1.5-1.5v-8a1.5 1.5 0 013 0v6.5H23a1.5 1.5 0 010 3zM2.287 11.705A5.967 5.967 0 011 8a6 6 0 016-6c1.4 0 2.685.483 3.706 1.287a16.056 16.056 0 00-8.419 8.418z"/></svg>