<svg xmlns="http://www.w3.org/2000/svg" width="35" height="34"><path fill-rule="evenodd" fill="#95e1d3" d="M33.065 26.89l-14.471 5.987a1.494 1.494 0 01-1.188 0L2.936 26.89A1.5 1.5 0 012 25.5v-23a1.5 1.5 0 012.073-1.386l.003.001.013.005L18 6.876 31.91 1.12l.014-.005.003-.001A1.5 1.5 0 0134 2.5v23a1.5 1.5 0 01-.935 1.39zM16.5 9.502L5 4.743v19.754l11.5 4.759V9.503zM31 4.743l-11.5 4.76v19.753l11.5-4.76V4.745zm-9.12 6.891l5.5-2.5a1.5 1.5 0 011.241 2.731l-5.5 2.5a1.5 1.5 0 11-1.241-2.731zm0 5.5l5.5-2.5a1.5 1.5 0 011.24 2.731l-5.5 2.5a1.5 1.5 0 01-1.241-2.73zm0 5.5l5.5-2.5a1.5 1.5 0 011.241 2.731l-5.5 2.5a1.5 1.5 0 01-1.241-2.731zM8 9c.221 0 .431.048.62.134l5.5 2.5a1.5 1.5 0 01-1.24 2.731l-5.5-2.5A1.5 1.5 0 018 9zm0 5.5a1.5 1.5 0 01.62.134l5.5 2.5a1.5 1.5 0 11-1.24 2.73v.001l-5.5-2.5A1.5 1.5 0 018 14.5zM8 20c.221 0 .431.048.62.134l5.5 2.5a1.5 1.5 0 01-1.24 2.731l-5.5-2.5A1.5 1.5 0 018 20z"/></svg>