<svg aria-hidden="true" style="position: absolute; width: 0; height: 0; overflow: hidden;" version="1.1" xmlns="http://www.w3.org/2000/svg" xmlns:xlink="http://www.w3.org/1999/xlink">
<defs>
<symbol id="facebook" viewBox="0 0 17 32">
<path d="M14.444 2.426v4.546s-3.352-0.333-4.192 0.951c-0.459 0.702-0.186 2.759-0.227 4.235h4.447c-0.376 1.726-0.646 2.895-0.922 4.39h-3.549v14.129h-6.161v-14.073h-2.62v-4.444h2.592c0.132-3.251 0.182-6.471 1.798-8.11 1.814-1.844 3.545-1.622 8.833-1.622z"></path>
</symbol>
<symbol id="instagram" viewBox="0 0 32 32">
<path d="M27.086 30.629h-21.943c-2.020 0-3.657-1.637-3.657-3.657v0-21.943c0-2.020 1.637-3.657 3.657-3.657v0h21.943c2.020 0 3.657 1.637 3.657 3.657v0 21.943c0 2.020-1.637 3.657-3.657 3.657v0zM16.114 10.331c-2.266 0.001-4.221 1.333-5.126 3.257l-0.015 0.035h-0.006l-0.025 0.062c-0.039 0.083-0.088 0.204-0.134 0.328l-0.013 0.039c-0.023 0.061-0.046 0.119-0.065 0.178-0.030 0.088-0.068 0.218-0.1 0.35l-0.008 0.039c-0.016 0.061-0.034 0.121-0.048 0.183-0.030 0.138-0.050 0.279-0.070 0.421-0.008 0.057-0.019 0.113-0.026 0.171-0.021 0.184-0.033 0.396-0.033 0.612 0 3.131 2.538 5.669 5.669 5.669s5.669-2.538 5.669-5.669c0-0.216-0.012-0.428-0.035-0.638l0.002 0.026c-0.007-0.058-0.018-0.114-0.026-0.171-0.022-0.174-0.047-0.317-0.076-0.458l0.007 0.037c-0.014-0.062-0.032-0.122-0.048-0.183-0.041-0.171-0.078-0.301-0.12-0.429l0.011 0.041c-0.019-0.059-0.043-0.118-0.065-0.178-0.058-0.162-0.107-0.283-0.161-0.401l0.014 0.036-0.025-0.064h-0.006c-0.92-1.958-2.875-3.289-5.14-3.29h-0zM27.451 6.126c0-0.808-0.655-1.463-1.463-1.463v0h-2.926c-0.808 0-1.463 0.655-1.463 1.463v2.926c0 0.808 0.655 1.463 1.463 1.463h2.926c0.808 0 1.463-0.655 1.463-1.463v0-2.926zM27.451 13.623h-2.697c0.204 0.713 0.321 1.531 0.321 2.377 0 4.948-4.012 8.96-8.96 8.96-0 0-0.001 0-0.001 0h0c-0 0-0.001 0-0.001 0-4.948 0-8.96-4.012-8.96-8.96 0-0.846 0.117-1.664 0.336-2.44l-0.015 0.063h-2.697v12.251c0 0.808 0.655 1.463 1.463 1.463h19.749c0.808 0 1.463-0.655 1.463-1.463v0-12.251z"></path>
</symbol>
<symbol id="pinterest" viewBox="0 0 25 32">
<path d="M11.090 19.701c-0.23 0.919-0.462 1.882-0.703 2.825-0.237 0.929-0.447 1.871-0.792 2.726-0.573 1.414-1.3 2.781-2.254 3.885-0.634 0.736-0.5 0.441-0.691 0.403-0.146-0.031-0.158-0.173-0.188-0.381-0.154-1.123-0.049-2.422 0.009-3.686 0.066-1.438 0.369-2.634 0.65-3.829 0.534-2.276 1.044-4.51 1.583-6.802 0.035-0.152 0.132-0.404 0.099-0.491-0.245-0.637-0.404-1.208-0.473-1.876-0.023-0.195-0.036-0.421-0.036-0.651 0-0.531 0.069-1.046 0.199-1.536l-0.009 0.042c0.303-1.167 1.006-2.201 2.089-2.58 0.689-0.238 1.451-0.13 1.914 0.146 0.477 0.286 0.804 0.736 0.957 1.375 0.163 0.679 0.043 1.49-0.088 2.087-0.295 1.345-0.682 2.355-1.034 3.652-0.174 0.643-0.372 1.304-0.21 1.999 0.151 0.638 0.483 1.077 0.936 1.407 0.47 0.342 1.026 0.53 1.793 0.502 1.355-0.047 2.296-0.914 2.926-1.73 1.006-1.308 1.615-3.072 1.847-5.171 0.075-0.678 0.129-1.455 0.077-2.223-0.097-1.416-0.541-2.556-1.244-3.438-0.669-0.841-1.618-1.512-2.772-1.887-1.144-0.375-2.728-0.499-4.135-0.258-2.558 0.438-4.361 1.891-5.423 3.898-0.582 1.066-0.924 2.336-0.924 3.685 0 0.027 0 0.054 0 0.082l-0-0.004c0 1.159 0.287 2.058 0.748 2.759 0.147 0.222 0.362 0.405 0.505 0.659 0.204 0.36-0.031 0.895-0.132 1.284-0.121 0.469-0.132 1.117-0.681 1.128-0.227 0.004-0.512-0.161-0.704-0.268-1.44-0.796-2.314-2.243-2.673-4.12-0.104-0.537-0.163-1.155-0.163-1.786s0.059-1.249 0.173-1.848l-0.010 0.061c0.21-1.067 0.6-2.050 1.034-2.848 0.908-1.647 2.204-2.979 3.769-3.906l0.047-0.026c1.231-0.728 2.621-1.239 4.311-1.485 0.509-0.071 1.121-0.123 1.741-0.144l0.030-0.001c0.145-0.007 0.314-0.011 0.484-0.011 1.552 0 3.027 0.333 4.357 0.931l-0.067-0.027c1.291 0.578 2.385 1.377 3.281 2.36l0.007 0.008c0.925 1.009 1.598 2.185 2.024 3.651 0.223 0.764 0.439 1.58 0.439 2.524 0 0.947-0.2 1.78-0.34 2.613-0.523 3.121-2.007 5.672-4.235 7.126-0.557 0.369-1.199 0.673-1.884 0.88l-0.052 0.013c-0.736 0.213-1.576 0.374-2.475 0.311-0.81-0.047-1.557-0.277-2.213-0.65l0.025 0.013c-0.596-0.337-1.097-0.749-1.452-1.373z"></path>
</symbol>
<symbol id="twitter" viewBox="0 0 37 32">
<path d="M24.684 2.135c2.712-0.049 4.156 0.94 5.533 2.197 1.172-0.101 2.693-0.755 3.589-1.211l0.871-0.476c-0.512 1.383-1.205 2.467-2.272 3.287-0.237 0.183-0.472 0.429-0.769 0.547v0.016c1.52-0.015 2.773-0.701 3.964-1.073v0.017c-0.625 0.993-1.472 2.003-2.375 2.725l-1.093 0.867c0.020 1.611-0.024 3.147-0.324 4.499-1.749 7.86-6.384 13.196-13.72 15.483-2.633 0.821-6.889 1.157-9.907 0.408-1.497-0.371-2.849-0.791-4.117-1.345-0.78-0.339-1.431-0.681-2.054-1.063l0.071 0.041-0.615-0.373c0.68 0.020 1.477 0.208 2.237 0.085 0.689-0.112 1.364-0.083 2-0.221 1.584-0.348 2.991-0.808 4.201-1.516 0.588-0.345 1.48-0.747 1.897-1.244-0.787 0.013-1.5-0.169-2.084-0.375-2.267-0.8-3.584-2.271-4.443-4.48 0.687 0.076 2.664 0.253 3.127-0.136-0.864-0.048-1.695-0.548-2.289-0.92-1.823-1.14-3.308-3.052-3.297-5.995l0.717 0.34c0.459 0.193 0.924 0.296 1.469 0.409 0.231 0.048 0.693 0.183 0.957 0.084h-0.035c-0.352-0.409-0.927-0.683-1.28-1.124-1.171-1.453-2.267-3.688-1.573-6.352 0.176-0.676 0.455-1.272 0.752-1.823l0.035 0.016c0.136 0.285 0.44 0.495 0.632 0.733 0.597 0.74 1.333 1.405 2.084 1.992 2.557 2 4.86 3.229 8.56 4.139 0.937 0.232 2.021 0.408 3.143 0.409-0.315-0.916-0.213-2.4 0.033-3.287 0.624-2.232 1.977-3.84 3.964-4.701 0.441-0.19 0.961-0.355 1.5-0.468l0.055-0.010 0.853-0.101z"></path>
</symbol>
</defs>
</svg>
